<svg xmlns="http://www.w3.org/2000/svg"
  xmlns:xlink="http://www.w3.org/1999/xlink" width="32" height="32" fill="none">
  <style><![CDATA[.B{color-interpolation-filters:sRGB}.C{flood-opacity:0}]]></style>
  <path fill="#52c3e4" d="M2.02 23.97V8.07c0-1.02.78-1.32 1.26-1.52.49-.2 11.67-4.27 12.02-4.4a3.5 3.5 0 0 1 1.36 0A779.9 779.9 0 0 1 29 6.7c.64.28.9 1.04.95 1.39v15.76c0 .73-.54 1.36-.84 1.47l-12.6 4.64c-.26.1-.74.11-1.04 0L3.3 25.52c-1-.36-1.34-1.2-1.3-1.55Z"/>
  <use xlink:href="#g" fill="url(#O)"/>
  <use xlink:href="#g" fill="url(#P)"/>
  <use xlink:href="#g" fill="url(#Q)"/>
  <use xlink:href="#g" fill="url(#A)"/>
  <use xlink:href="#g" fill="url(#R)"/>
  <use xlink:href="#g" fill="url(#S)"/>
  <use xlink:href="#h" fill="url(#T)"/>
  <use xlink:href="#h" fill="url(#U)"/>
  <use xlink:href="#h" fill="url(#V)"/>
  <use xlink:href="#h" fill="url(#W)"/>
  <use xlink:href="#i" fill="url(#X)"/>
  <use xlink:href="#i" fill="url(#Y)"/>
  <use xlink:href="#i" fill="url(#Z)"/>
  <use xlink:href="#i" fill="url(#B)"/>
  <g filter="url(#a)">
    <use xlink:href="#j" fill="#78dcff"/>
    <use xlink:href="#j" fill="#39b3ff"/>
  </g>
  <use xlink:href="#k" fill="#78dcff"/>
  <use xlink:href="#k" fill="url(#C)"/>
  <use xlink:href="#k" fill="url(#D)"/>
  <use xlink:href="#k" fill="url(#E)"/>
  <g filter="url(#b)">
    <path fill="#33b4ff" d="M26.25 20.42c1.33-.12 1.64 1.8.46 2.12-.55.15-1.23-.13-1.3-.64-.07-.6.4-1.44.84-1.48Z"/>
  </g>
  <use xlink:href="#l" fill="url(#F)"/>
  <use xlink:href="#l" fill="url(#G)"/>
  <g filter="url(#c)">
    <path fill="#268be7" d="M12.17 18.75c.03-.74.61-1.19.92-1.19 1.36.16 1.1 1.95.68 2.11-.36.14-1.63 0-1.6-.92Z"/>
  </g>
  <use xlink:href="#m" fill="url(#H)"/>
  <use xlink:href="#m" fill="url(#I)"/>
  <g filter="url(#d)">
    <path fill="#1d89e4" d="M7.82 23.34c-.21-1.02.56-1.63.94-1.63 1.48 0 1.46 2.18 1 2.44-.47.26-1.73.2-1.94-.81Z"/>
  </g>
  <path fill="url(#J)" d="M7.38 23.55c-.22-1.02.56-1.63.93-1.63 1.49 0 1.46 2.18 1 2.44s-1.72.2-1.94-.81z"/>
  <path fill="url(#K)" d="M7.38 23.55c-.22-1.02.56-1.63.93-1.63 1.49 0 1.46 2.18 1 2.44s-1.72.2-1.94-.81z"/>
  <g filter="url(#e)">
    <path fill="#39e" d="M4.54 16c-.11-1.31.77-3.23 1.48-4.03.2-.17.33-.16.53.05.51.56 1.91 3.09 1.91 4.65 0 1.19-1.01 1.36-1.53 1.36-.86 0-2.27-.72-2.39-2.03Z"/>
  </g>
  <use xlink:href="#n" fill="#63a9ed"/>
  <use xlink:href="#n" fill="url(#L)"/>
  <use xlink:href="#n" fill="url(#M)"/>
  <use xlink:href="#n" fill="url(#N)"/>
  <defs>
    <radialGradient id="A" cx="0" cy="0" r="1" gradientTransform="matrix(0.12266789758247808,0.5771070844329452,-1.0759623608071862,0.22870285989953543,16.301256106756085,11.969625185817268)" xlink:href="#o">
      <stop offset=".56" stop-color="#83f3fe"/>
      <stop offset="1" stop-color="#82f3fe" stop-opacity="0"/>
    </radialGradient>
    <radialGradient id="B" cx="0" cy="0" r="1" gradientTransform="matrix(-0.9359244484304624,0.49763985655304455,-0.5164187190644802,-0.9712423521448196,16.35269189851335,11.922815987833802)" xlink:href="#o">
      <stop offset=".42" stop-color="#86f8ff"/>
      <stop offset="1" stop-color="#85f6ff" stop-opacity="0"/>
    </radialGradient>
    <radialGradient id="C" cx="0" cy="0" r="1" gradientTransform="matrix(0.63,2.88,-1.84,0.4,19.81,18.93)" xlink:href="#o">
      <stop stop-color="#67c9ff"/>
      <stop offset="1" stop-color="#62c9ff" stop-opacity="0"/>
    </radialGradient>
    <radialGradient id="D" cx="0" cy="0" r="1" gradientTransform="matrix(0,4.34,-0.97,0,21.05,13.67)" xlink:href="#o">
      <stop offset=".23" stop-color="#b0ffff"/>
      <stop offset=".8" stop-color="#b1ffff" stop-opacity="0"/>
    </radialGradient>
    <radialGradient id="E" cx="0" cy="0" r="1" gradientTransform="matrix(1.1,3.19,-1.17,0.4,21.74,14.54)" xlink:href="#o">
      <stop stop-color="#b0ffff"/>
      <stop offset="1" stop-color="#affeff" stop-opacity="0"/>
    </radialGradient>
    <radialGradient id="F" cx="0" cy="0" r="1" gradientTransform="rotate(83 1.46 25.5) scale(1.08 1.03)" xlink:href="#o">
      <stop stop-color="#5adbff"/>
      <stop offset="1" stop-color="#51e5ff"/>
    </radialGradient>
    <radialGradient id="G" cx="0" cy="0" r="1" gradientTransform="matrix(0.17,0.4,-0.8,0.33,27.13,20.45)" xlink:href="#o">
      <stop stop-color="#8cf5ff"/>
      <stop offset="1" stop-color="#78edff" stop-opacity="0"/>
    </radialGradient>
    <radialGradient id="H" cx="0" cy="0" r="1" gradientTransform="rotate(108 -.2 14) scale(1.72 1.98)" xlink:href="#o">
      <stop stop-color="#59aff3"/>
      <stop offset=".46" stop-color="#52a7f3"/>
      <stop offset=".8" stop-color="#64aef1"/>
    </radialGradient>
    <radialGradient id="I" cx="0" cy="0" r="1" gradientTransform="matrix(-0.3,0.2,-0.18,-0.27,13.2,18.44)" xlink:href="#o">
      <stop offset=".23" stop-color="#82c6ff"/>
      <stop offset="1" stop-color="#83c6ff" stop-opacity="0"/>
    </radialGradient>
    <radialGradient id="J" cx="0" cy="0" r="1" gradientTransform="rotate(108 -3.98 14.7) scale(2.05 2.3)" xlink:href="#o">
      <stop stop-color="#59aff3"/>
      <stop offset=".46" stop-color="#52a7f3"/>
      <stop offset=".8" stop-color="#64aef1"/>
    </radialGradient>
    <radialGradient id="K" cx="0" cy="0" r="1" gradientTransform="rotate(145 .87 12.81) scale(.42 .38)" xlink:href="#o">
      <stop offset=".23" stop-color="#82c6ff"/>
      <stop offset="1" stop-color="#83c6ff" stop-opacity="0"/>
    </radialGradient>
    <radialGradient id="L" cx="0" cy="0" r="1" gradientTransform="matrix(-0.37,4.81,-3.06,-0.24,6.19,14.06)" xlink:href="#o">
      <stop offset=".45" stop-color="#73abee" stop-opacity="0"/>
      <stop offset=".85" stop-color="#70afe2"/>
    </radialGradient>
    <radialGradient id="M" cx="0" cy="0" r="1" gradientTransform="matrix(0,3.44,-2.57,0,5.82,13.75)" xlink:href="#o">
      <stop offset=".4" stop-color="#73b3e4"/>
      <stop offset="1" stop-color="#6fb0e0" stop-opacity="0"/>
    </radialGradient>
    <radialGradient id="N" cx="0" cy="0" r="1" gradientTransform="matrix(0.22,2.72,-0.62,0.05,6.44,12.69)" xlink:href="#o">
      <stop stop-color="#a1d0f5"/>
      <stop offset="1" stop-color="#8dc1ea" stop-opacity="0"/>
    </radialGradient>
    <linearGradient id="O" x1="10.5" x2="15.97" y1="4.13" y2="8.5" xlink:href="#o">
      <stop stop-color="#70d9ea"/>
      <stop offset="1" stop-color="#70def1"/>
    </linearGradient>
    <linearGradient id="P" x1="20.84" x2="20.47" y1="10.5" y2="9.44" xlink:href="#o">
      <stop offset=".18" stop-color="#85f6ff"/>
      <stop offset=".73" stop-color="#85f6ff" stop-opacity="0"/>
    </linearGradient>
    <linearGradient id="Q" x1="8.88" x2="9.31" y1="9.69" y2="8.44" xlink:href="#o">
      <stop offset=".18" stop-color="#4cbfe2"/>
      <stop offset=".73" stop-color="#60cae4" stop-opacity="0"/>
    </linearGradient>
    <linearGradient id="R" x1="9.44" x2="9.72" y1="4.44" y2="5.19" xlink:href="#o">
      <stop stop-color="#66c5d6"/>
      <stop offset="1" stop-color="#78d5e6" stop-opacity="0"/>
    </linearGradient>
    <linearGradient id="S" x1="9.44" x2="9.72" y1="4.44" y2="5.19" xlink:href="#o">
      <stop stop-color="#70c0ce"/>
      <stop offset=".32" stop-color="#6dd1e1" stop-opacity="0"/>
    </linearGradient>
    <linearGradient id="T" x1="18.38" x2="27.88" y1="12" y2="25.63" xlink:href="#o">
      <stop stop-color="#57e1ff"/>
      <stop offset="1" stop-color="#3fc0ff"/>
    </linearGradient>
    <linearGradient id="U" x1="24.38" x2="23.88" y1="27.22" y2="25.88" xlink:href="#o">
      <stop stop-color="#4aa3ff"/>
      <stop offset="1" stop-color="#3caeff" stop-opacity="0"/>
    </linearGradient>
    <linearGradient id="V" x1="16.03" x2="18.63" y1="23.38" y2="23.38" xlink:href="#o">
      <stop stop-color="#48abff"/>
      <stop offset="1" stop-color="#45c3ff" stop-opacity="0"/>
    </linearGradient>
    <linearGradient id="W" x1="22.06" x2="22.5" y1="9.75" y2="11" xlink:href="#o">
      <stop offset=".13" stop-color="#86f7ff"/>
      <stop offset=".8" stop-color="#86f7ff" stop-opacity="0"/>
    </linearGradient>
    <linearGradient id="X" x1="3.19" x2="14.63" y1="8.75" y2="27.31" xlink:href="#o">
      <stop stop-color="#51b0d9"/>
      <stop offset=".76" stop-color="#458ef3"/>
    </linearGradient>
    <linearGradient id="Y" x1="13.38" x2="16.03" y1="24.13" y2="24.13" xlink:href="#o">
      <stop offset=".66" stop-color="#41a1ff" stop-opacity="0"/>
      <stop offset="1" stop-color="#49acff"/>
    </linearGradient>
    <linearGradient id="Z" x1="9.02" x2="8.44" y1="9.06" y2="10.69" xlink:href="#o">
      <stop offset=".31" stop-color="#4cbfe2"/>
      <stop offset="1" stop-color="#4abde1" stop-opacity="0"/>
    </linearGradient>
    <filter id="a" width="5.11" height="7.53" x="17.7" y="13.3" filterUnits="userSpaceOnUse" class="B">
      <feFlood class="C"/>
      <feBlend in="SourceGraphic"/>
      <feGaussianBlur stdDeviation=".5"/>
    </filter>
    <filter id="b" width="4.03" height="4.16" x="24.41" y="19.41" filterUnits="userSpaceOnUse" class="B">
      <feFlood class="C"/>
      <feBlend in="SourceGraphic"/>
      <feGaussianBlur stdDeviation=".5"/>
    </filter>
    <filter id="c" width="3.94" height="4.16" x="11.17" y="16.56" filterUnits="userSpaceOnUse" class="B">
      <feFlood class="C"/>
      <feBlend in="SourceGraphic"/>
      <feGaussianBlur stdDeviation=".5"/>
    </filter>
    <filter id="d" width="4.25" height="4.57" x="6.78" y="20.71" filterUnits="userSpaceOnUse" class="B">
      <feFlood class="C"/>
      <feBlend in="SourceGraphic"/>
      <feGaussianBlur stdDeviation=".5"/>
    </filter>
    <filter id="e" width="5.93" height="8.18" x="3.53" y="10.85" filterUnits="userSpaceOnUse" class="B">
      <feFlood class="C"/>
      <feBlend in="SourceGraphic"/>
      <feGaussianBlur stdDeviation=".5"/>
    </filter>
    <filter width="13.66" height="5.13" x="15.13" y="6.37" filterUnits="userSpaceOnUse" class="B">
      <feFlood class="C"/>
      <feBlend in="SourceGraphic"/>
      <feGaussianBlur stdDeviation=".13"/>
    </filter>
    <path id="g" d="M16.66 2.16A1460.7 1460.7 0 0 1 29 6.69c.38.15.53.42.67.6L16 12.15 2.27 7.2c.27-.32.72-.53 1.01-.65.49-.2 11.67-4.27 12.02-4.4a3.51 3.51 0 0 1 1.36 0Z"/>
    <path id="h" d="m29.1 25.31-12.58 4.64c-.13.05-.3.07-.49.08V12l13.6-4.75c.2.3.32.6.32.82v15.76c0 .73-.54 1.36-.84 1.47Z"/>
    <path id="i" d="M2.02 23.97V8.07c0-.4.12-.7.3-.92 0 0 10.43 3.94 13.71 4.84v18.04c-.2 0-.4-.02-.56-.08L3.3 25.52c-1-.36-1.34-1.2-1.3-1.55Z"/>
    <path id="j" d="M20.15 14.38a7.28 7.28 0 0 1 1.63 3.22c.35 2.08-2.65 3.07-3.01 1.34-.29-1.36.44-3.36 1.05-4.5.08-.18.25-.17.33-.06Z"/>
    <path id="k" d="M20.65 13.48a7.01 7.01 0 0 1 1.85 3.22c.4 2.08-3 3.07-3.41 1.34-.32-1.36.5-3.36 1.18-4.5.1-.18.29-.17.38-.06Z"/>
    <path id="l" d="M26.52 19.79c1.33-.12 1.63 1.8.46 2.12-.55.15-1.23-.13-1.3-.64-.07-.6.4-1.44.84-1.48Z"/>
    <path id="m" d="M11.8 18.86c.02-.74.6-1.19.92-1.19 1.36.16 1.1 1.94.67 2.11-.36.14-1.62 0-1.6-.92Z"/>
    <path id="n" d="M3.86 16c-.11-1.31 1.28-3.23 1.98-4.03.2-.17.34-.16.54.05.51.56 1.4 3.09 1.4 4.65 0 1.19-1.01 1.36-1.53 1.36-.86 0-2.28-.72-2.4-2.03Z"/>
    <linearGradient id="o" gradientUnits="userSpaceOnUse"/>
  </defs>
</svg>